<?xml version="1.0" encoding="UTF-8" standalone="no"?>
<svg width="60px" height="60px" viewBox="0 0 60 60" version="1.1" xmlns="http://www.w3.org/2000/svg" xmlns:xlink="http://www.w3.org/1999/xlink" xmlns:sketch="http://www.bohemiancoding.com/sketch/ns">
    <!-- Generator: Sketch 3.5.2 (25235) - http://www.bohemiancoding.com/sketch -->
    <title>Comissionup</title>
    <desc>Created with Sketch.</desc>
    <defs>
        <path id="path-1" d="M0,0.782 L935.887,0.782 L935.887,1743 L0,1743 L0,0.782 Z"></path>
        <path id="path-3" d="M0,0.782 L935.887,0.782 L935.887,1743 L0,1743 L0,0.782 Z"></path>
        <path id="path-5" d="M0,0.782 L935.887,0.782 L935.887,1743 L0,1743 L0,0.782 Z"></path>
        <path id="path-7" d="M0,0.782 L935.887,0.782 L935.887,1743 L0,1743 L0,0.782 Z"></path>
        <path id="path-9" d="M0,0.782 L935.887,0.782 L935.887,1743 L0,1743 L0,0.782 Z"></path>
        <path id="path-11" d="M0,0.782 L935.887,0.782 L935.887,1743 L0,1743 L0,0.782 Z"></path>
        <path id="path-13" d="M0,0.782 L935.887,0.782 L935.887,1743 L0,1743 L0,0.782 Z"></path>
        <path id="path-15" d="M0,0.782 L935.887,0.782 L935.887,1743 L0,1743 L0,0.782 Z"></path>
        <path id="path-17" d="M0,0.782 L935.887,0.782 L935.887,1743 L0,1743 L0,0.782 Z"></path>
        <path id="path-19" d="M0,0.782 L935.887,0.782 L935.887,1743 L0,1743 L0,0.782 Z"></path>
        <path id="path-21" d="M0,0.782 L935.887,0.782 L935.887,1743 L0,1743 L0,0.782 Z"></path>
        <path id="path-23" d="M0,0.782 L935.887,0.782 L935.887,1743 L0,1743 L0,0.782 Z"></path>
        <path id="path-25" d="M0,0.782 L935.887,0.782 L935.887,1743 L0,1743 L0,0.782 Z"></path>
        <path id="path-27" d="M0,0.782 L935.887,0.782 L935.887,1743 L0,1743 L0,0.782 Z"></path>
        <path id="path-29" d="M0,0.782 L935.887,0.782 L935.887,1743 L0,1743 L0,0.782 Z"></path>
        <path id="path-31" d="M8.892,0.783 C4.461,0.783 0.887,4.366 0.887,8.787 L0.887,8.787 L0.887,20.778 C0.887,25.208 4.471,28.783 8.892,28.783 L8.892,28.783 L20.881,28.783 C25.312,28.783 28.887,25.199 28.887,20.778 L28.887,20.778 L28.887,8.787 C28.887,4.357 25.303,0.783 20.881,0.783 L20.881,0.783 L8.892,0.783 Z"></path>
        <path id="path-33" d="M0,0.782 L935.887,0.782 L935.887,1743 L0,1743 L0,0.782 Z"></path>
        <path id="path-35" d="M0,0.782 L935.887,0.782 L935.887,1743 L0,1743 L0,0.782 Z"></path>
        <path id="path-37" d="M0,0.782 L935.887,0.782 L935.887,1743 L0,1743 L0,0.782 Z"></path>
        <path id="path-39" d="M0,0.782 L935.887,0.782 L935.887,1743 L0,1743 L0,0.782 Z"></path>
        <path id="path-41" d="M0,0.782 L935.887,0.782 L935.887,1743 L0,1743 L0,0.782 Z"></path>
        <path id="path-43" d="M0,0.782 L935.887,0.782 L935.887,1743 L0,1743 L0,0.782 Z"></path>
        <path id="path-45" d="M0,0.782 L935.887,0.782 L935.887,1743 L0,1743 L0,0.782 Z"></path>
        <path id="path-47" d="M0,0.782 L935.887,0.782 L935.887,1743 L0,1743 L0,0.782 Z"></path>
        <path id="path-49" d="M0,0.782 L935.887,0.782 L935.887,1743 L0,1743 L0,0.782 Z"></path>
        <path id="path-51" d="M0,0.782 L935.887,0.782 L935.887,1743 L0,1743 L0,0.782 Z"></path>
        <path id="path-53" d="M0,0.782 L935.887,0.782 L935.887,1743 L0,1743 L0,0.782 Z"></path>
        <path id="path-55" d="M0,0.782 L935.887,0.782 L935.887,1743 L0,1743 L0,0.782 Z"></path>
        <path id="path-57" d="M0,0.782 L935.887,0.782 L935.887,1743 L0,1743 L0,0.782 Z"></path>
        <path id="path-59" d="M0,0.782 L935.887,0.782 L935.887,1743 L0,1743 L0,0.782 Z"></path>
        <path id="path-61" d="M0,0.782 L935.887,0.782 L935.887,1743 L0,1743 L0,0.782 Z"></path>
        <path id="path-63" d="M0,0.782 L935.887,0.782 L935.887,1743 L0,1743 L0,0.782 Z"></path>
        <path id="path-65" d="M0,0.782 L935.887,0.782 L935.887,1743 L0,1743 L0,0.782 Z"></path>
        <path id="path-67" d="M0,0.782 L935.887,0.782 L935.887,1743 L0,1743 L0,0.782 Z"></path>
        <path id="path-69" d="M0,0.782 L935.887,0.782 L935.887,1743 L0,1743 L0,0.782 Z"></path>
        <path id="path-71" d="M0,0.782 L935.887,0.782 L935.887,1743 L0,1743 L0,0.782 Z"></path>
        <path id="path-73" d="M0,0.782 L935.887,0.782 L935.887,1743 L0,1743 L0,0.782 Z"></path>
        <path id="path-75" d="M0,0.782 L935.887,0.782 L935.887,1743 L0,1743 L0,0.782 Z"></path>
        <path id="path-77" d="M0,0.782 L935.887,0.782 L935.887,1743 L0,1743 L0,0.782 Z"></path>
        <path id="path-79" d="M0,0.782 L935.887,0.782 L935.887,1743 L0,1743 L0,0.782 Z"></path>
        <path id="path-81" d="M0,0.782 L935.887,0.782 L935.887,1743 L0,1743 L0,0.782 Z"></path>
        <path id="path-83" d="M0,0.782 L935.887,0.782 L935.887,1743 L0,1743 L0,0.782 Z"></path>
        <path id="path-85" d="M0,0.782 L935.887,0.782 L935.887,1743 L0,1743 L0,0.782 Z"></path>
        <path id="path-87" d="M0,0.782 L935.887,0.782 L935.887,1743 L0,1743 L0,0.782 Z"></path>
    </defs>
    <g id="flat" stroke="none" stroke-width="1" fill="none" fill-rule="evenodd" sketch:type="MSPage">
        <g id="Marketing_sliced" sketch:type="MSLayerGroup" transform="translate(-480.000000, -600.000000)"></g>
        <g id="Page-1" sketch:type="MSLayerGroup" transform="translate(-500.826418, -595.768558)">
            <g id="Group-87">
                <mask id="mask-2" sketch:name="Clip 79" fill="white">
                    <use xlink:href="#path-1"></use>
                </mask>
                <g id="Clip-79"></g>
            </g>
            <g id="Group-378">
                <mask id="mask-4" sketch:name="Clip 375" fill="white">
                    <use xlink:href="#path-3"></use>
                </mask>
                <g id="Clip-375"></g>
            </g>
            <g id="Group-403">
                <mask id="mask-6" sketch:name="Clip 400" fill="white">
                    <use xlink:href="#path-5"></use>
                </mask>
                <g id="Clip-400"></g>
            </g>
            <g id="Group-429">
                <mask id="mask-8" sketch:name="Clip 423" fill="white">
                    <use xlink:href="#path-7"></use>
                </mask>
                <g id="Clip-423"></g>
            </g>
            <g id="Group-449">
                <mask id="mask-10" sketch:name="Clip 447" fill="white">
                    <use xlink:href="#path-9"></use>
                </mask>
                <g id="Clip-447"></g>
            </g>
            <g id="Group-475">
                <mask id="mask-12" sketch:name="Clip 471" fill="white">
                    <use xlink:href="#path-11"></use>
                </mask>
                <g id="Clip-471"></g>
            </g>
            <g id="Group-493">
                <mask id="mask-14" sketch:name="Clip 491" fill="white">
                    <use xlink:href="#path-13"></use>
                </mask>
                <g id="Clip-491"></g>
            </g>
            <g id="Group-513"></g>
            <g id="Group-533"></g>
            <g id="Group-565"></g>
            <g id="Group-572"></g>
            <g id="Group-581">
                <mask id="mask-16" sketch:name="Clip 579" fill="white">
                    <use xlink:href="#path-15"></use>
                </mask>
                <g id="Clip-579"></g>
            </g>
            <g id="Group-597"></g>
            <g id="Group-608"></g>
            <g id="Group-651">
                <mask id="mask-18" sketch:name="Clip 646" fill="white">
                    <use xlink:href="#path-17"></use>
                </mask>
                <g id="Clip-646"></g>
            </g>
            <g id="Group-690">
                <mask id="mask-20" sketch:name="Clip 686" fill="white">
                    <use xlink:href="#path-19"></use>
                </mask>
                <g id="Clip-686"></g>
            </g>
            <g id="Group-704">
                <mask id="mask-22" sketch:name="Clip 697" fill="white">
                    <use xlink:href="#path-21"></use>
                </mask>
                <g id="Clip-697"></g>
            </g>
            <g id="Group-717">
                <mask id="mask-24" sketch:name="Clip 711" fill="white">
                    <use xlink:href="#path-23"></use>
                </mask>
                <g id="Clip-711"></g>
            </g>
            <g id="Group-753">
                <mask id="mask-26" sketch:name="Clip 749" fill="white">
                    <use xlink:href="#path-25"></use>
                </mask>
                <g id="Clip-749"></g>
            </g>
            <g id="Group-774">
                <mask id="mask-28" sketch:name="Clip 773" fill="white">
                    <use xlink:href="#path-27"></use>
                </mask>
                <g id="Clip-773"></g>
            </g>
            <g id="Group-793">
                <mask id="mask-30" sketch:name="Clip 792" fill="white">
                    <use xlink:href="#path-29"></use>
                </mask>
                <g id="Clip-792"></g>
            </g>
            <g id="Group-831"></g>
            <g id="Group-941"></g>
            <g id="Group-948"></g>
            <g id="Group-976"></g>
            <g id="Group-996"></g>
            <g id="Group-1008"></g>
            <g id="Group-1068" fill="#E06C3E" sketch:type="MSShapeGroup">
                <path d="M546.887,637.782 L535.887,637.782 L535.887,635.782 L546.887,635.782 L546.887,637.782 Z" id="Fill-1067"></path>
            </g>
            <g id="Group-1071" transform="translate(508.000000, 622.000000)">
                <mask id="mask-32" sketch:name="Clip 1070" fill="white">
                    <use xlink:href="#path-31"></use>
                </mask>
                <g id="Clip-1070"></g>
                <path d="M-4.113,-4.218 L33.887,-4.218 L33.887,33.782 L-4.113,33.782 L-4.113,-4.218 Z" id="Fill-1069" fill="#F9A131" sketch:type="MSShapeGroup" mask="url(#mask-32)"></path>
            </g>
            <g id="Group-1086">
                <path d="M516.8915,623.7825 C513.0295,623.7825 509.8865,626.9255 509.8865,630.7875 L509.8865,642.7775 C509.8865,646.6395 513.0295,649.7825 516.8915,649.7825 L528.8815,649.7825 C532.7445,649.7825 535.8865,646.6395 535.8865,642.7775 L535.8865,630.7875 C535.8865,626.9255 532.7445,623.7825 528.8815,623.7825 L516.8915,623.7825 Z M528.8815,651.7825 L516.8915,651.7825 C511.9265,651.7825 507.8865,647.7425 507.8865,642.7775 L507.8865,630.7875 C507.8865,625.8225 511.9265,621.7825 516.8915,621.7825 L528.8815,621.7825 C533.8465,621.7825 537.8865,625.8225 537.8865,630.7875 L537.8865,642.7775 C537.8865,647.7425 533.8465,651.7825 528.8815,651.7825 L528.8815,651.7825 Z" id="Fill-1072" fill="#F9A131" sketch:type="MSShapeGroup"></path>
                <path d="M515.9706,644.699 C515.7146,644.699 515.4586,644.601 515.2636,644.406 C514.8726,644.015 514.8726,643.383 515.2636,642.992 L530.1796,628.075 C530.5706,627.685 531.2026,627.685 531.5936,628.075 C531.9846,628.466 531.9846,629.099 531.5936,629.49 L516.6776,644.406 C516.4826,644.601 516.2266,644.699 515.9706,644.699" id="Fill-1074" fill="#FFDC82" sketch:type="MSShapeGroup"></path>
                <path d="M517.3866,629.7825 C516.2836,629.7825 515.3866,630.6795 515.3866,631.7825 C515.3866,632.8855 516.2836,633.7825 517.3866,633.7825 C518.4896,633.7825 519.3866,632.8855 519.3866,631.7825 C519.3866,630.6795 518.4896,629.7825 517.3866,629.7825 M517.3866,635.7825 C515.1806,635.7825 513.3866,633.9885 513.3866,631.7825 C513.3866,629.5765 515.1806,627.7825 517.3866,627.7825 C519.5926,627.7825 521.3866,629.5765 521.3866,631.7825 C521.3866,633.9885 519.5926,635.7825 517.3866,635.7825" id="Fill-1076" fill="#FFDC82" sketch:type="MSShapeGroup"></path>
                <path d="M529.3866,638.7825 C528.2836,638.7825 527.3866,639.6795 527.3866,640.7825 C527.3866,641.8855 528.2836,642.7825 529.3866,642.7825 C530.4896,642.7825 531.3866,641.8855 531.3866,640.7825 C531.3866,639.6795 530.4896,638.7825 529.3866,638.7825 M529.3866,644.7825 C527.1806,644.7825 525.3866,642.9885 525.3866,640.7825 C525.3866,638.5765 527.1806,636.7825 529.3866,636.7825 C531.5926,636.7825 533.3866,638.5765 533.3866,640.7825 C533.3866,642.9885 531.5926,644.7825 529.3866,644.7825" id="Fill-1078" fill="#FFDC82" sketch:type="MSShapeGroup"></path>
                <path d="M545.8866,637.7825 C545.3336,637.7825 544.8866,637.3345 544.8866,636.7825 L544.8866,604.7825 C544.8866,604.2305 545.3336,603.7825 545.8866,603.7825 C546.4396,603.7825 546.8866,604.2305 546.8866,604.7825 L546.8866,636.7825 C546.8866,637.3345 546.4396,637.7825 545.8866,637.7825" id="Fill-1080" fill="#E06C3E" sketch:type="MSShapeGroup"></path>
                <path d="M552.9579,610.7825 C552.7019,610.7825 552.4459,610.6845 552.2509,610.4895 L545.8869,604.1255 L539.5219,610.4895 C539.1319,610.8805 538.4989,610.8805 538.1079,610.4895 C537.7179,610.0985 537.7179,609.4665 538.1079,609.0755 L545.1799,602.0045 C545.5699,601.6145 546.2029,601.6145 546.5939,602.0045 L553.6649,609.0755 C554.0559,609.4665 554.0559,610.0985 553.6649,610.4895 C553.4699,610.6845 553.2139,610.7825 552.9579,610.7825" id="Fill-1082" fill="#E06C3E" sketch:type="MSShapeGroup"></path>
                <mask id="mask-34" sketch:name="Clip 1085" fill="white">
                    <use xlink:href="#path-33"></use>
                </mask>
                <g id="Clip-1085"></g>
            </g>
            <g id="Group-1111">
                <mask id="mask-36" sketch:name="Clip 1109" fill="white">
                    <use xlink:href="#path-35"></use>
                </mask>
                <g id="Clip-1109"></g>
            </g>
            <g id="Group-1122">
                <mask id="mask-38" sketch:name="Clip 1118" fill="white">
                    <use xlink:href="#path-37"></use>
                </mask>
                <g id="Clip-1118"></g>
            </g>
            <g id="Group-1164"></g>
            <g id="Group-1181"></g>
            <g id="Group-1191"></g>
            <g id="Group-1201">
                <mask id="mask-40" sketch:name="Clip 1198" fill="white">
                    <use xlink:href="#path-39"></use>
                </mask>
                <g id="Clip-1198"></g>
            </g>
            <g id="Group-1215"></g>
            <g id="Group-1245"></g>
            <g id="Group-1382"></g>
            <g id="Group-1412">
                <mask id="mask-42" sketch:name="Clip 1411" fill="white">
                    <use xlink:href="#path-41"></use>
                </mask>
                <g id="Clip-1411"></g>
            </g>
            <g id="Group-1435"></g>
            <g id="Group-1546"></g>
            <g id="Group-1585">
                <mask id="mask-44" sketch:name="Clip 1583" fill="white">
                    <use xlink:href="#path-43"></use>
                </mask>
                <g id="Clip-1583"></g>
            </g>
            <g id="Group-1601"></g>
            <g id="Group-1658">
                <mask id="mask-46" sketch:name="Clip 1655" fill="white">
                    <use xlink:href="#path-45"></use>
                </mask>
                <g id="Clip-1655"></g>
            </g>
            <g id="Group-1677">
                <mask id="mask-48" sketch:name="Clip 1675" fill="white">
                    <use xlink:href="#path-47"></use>
                </mask>
                <g id="Clip-1675"></g>
            </g>
            <g id="Group-1688">
                <mask id="mask-50" sketch:name="Clip 1684" fill="white">
                    <use xlink:href="#path-49"></use>
                </mask>
                <g id="Clip-1684"></g>
            </g>
            <g id="Group-1695"></g>
            <g id="Group-1702"></g>
            <g id="Group-1725">
                <mask id="mask-52" sketch:name="Clip 1723" fill="white">
                    <use xlink:href="#path-51"></use>
                </mask>
                <g id="Clip-1723"></g>
            </g>
            <g id="Group-1815">
                <mask id="mask-54" sketch:name="Clip 1794" fill="white">
                    <use xlink:href="#path-53"></use>
                </mask>
                <g id="Clip-1794"></g>
            </g>
            <g id="Group-1833">
                <mask id="mask-56" sketch:name="Clip 1829" fill="white">
                    <use xlink:href="#path-55"></use>
                </mask>
                <g id="Clip-1829"></g>
            </g>
            <g id="Group-1905">
                <mask id="mask-58" sketch:name="Clip 1901" fill="white">
                    <use xlink:href="#path-57"></use>
                </mask>
                <g id="Clip-1901"></g>
            </g>
            <g id="Group-1977"></g>
            <g id="Group-1996">
                <mask id="mask-60" sketch:name="Clip 1989" fill="white">
                    <use xlink:href="#path-59"></use>
                </mask>
                <g id="Clip-1989"></g>
            </g>
            <g id="Group-2093"></g>
            <g id="Group-2166"></g>
            <g id="Group-2184"></g>
            <g id="Group-2241"></g>
            <g id="Group-2249"></g>
            <g id="Group-2307">
                <mask id="mask-62" sketch:name="Clip 2304" fill="white">
                    <use xlink:href="#path-61"></use>
                </mask>
                <g id="Clip-2304"></g>
            </g>
            <g id="Group-2356">
                <mask id="mask-64" sketch:name="Clip 2354" fill="white">
                    <use xlink:href="#path-63"></use>
                </mask>
                <g id="Clip-2354"></g>
            </g>
            <g id="Group-2363"></g>
            <g id="Group-2375">
                <mask id="mask-66" sketch:name="Clip 2373" fill="white">
                    <use xlink:href="#path-65"></use>
                </mask>
                <g id="Clip-2373"></g>
            </g>
            <g id="Group-2389">
                <mask id="mask-68" sketch:name="Clip 2385" fill="white">
                    <use xlink:href="#path-67"></use>
                </mask>
                <g id="Clip-2385"></g>
            </g>
            <g id="Group-2557">
                <mask id="mask-70" sketch:name="Clip 2555" fill="white">
                    <use xlink:href="#path-69"></use>
                </mask>
                <g id="Clip-2555"></g>
            </g>
            <g id="Group-2591">
                <mask id="mask-72" sketch:name="Clip 2585" fill="white">
                    <use xlink:href="#path-71"></use>
                </mask>
                <g id="Clip-2585"></g>
            </g>
            <g id="Group-2745">
                <mask id="mask-74" sketch:name="Clip 2742" fill="white">
                    <use xlink:href="#path-73"></use>
                </mask>
                <g id="Clip-2742"></g>
            </g>
            <g id="Group-2762">
                <mask id="mask-76" sketch:name="Clip 2752" fill="white">
                    <use xlink:href="#path-75"></use>
                </mask>
                <g id="Clip-2752"></g>
            </g>
            <g id="Group-2775">
                <mask id="mask-78" sketch:name="Clip 2769" fill="white">
                    <use xlink:href="#path-77"></use>
                </mask>
                <g id="Clip-2769"></g>
            </g>
            <g id="Group-2890">
                <mask id="mask-80" sketch:name="Clip 2889" fill="white">
                    <use xlink:href="#path-79"></use>
                </mask>
                <g id="Clip-2889"></g>
            </g>
            <g id="Group-2905">
                <mask id="mask-82" sketch:name="Clip 2904" fill="white">
                    <use xlink:href="#path-81"></use>
                </mask>
                <g id="Clip-2904"></g>
            </g>
            <g id="Group-2914">
                <mask id="mask-84" sketch:name="Clip 2912" fill="white">
                    <use xlink:href="#path-83"></use>
                </mask>
                <g id="Clip-2912"></g>
            </g>
            <g id="Group-2924"></g>
            <g id="Group-2942">
                <mask id="mask-86" sketch:name="Clip 2941" fill="white">
                    <use xlink:href="#path-85"></use>
                </mask>
                <g id="Clip-2941"></g>
            </g>
            <g id="Group-3073">
                <mask id="mask-88" sketch:name="Clip 3062" fill="white">
                    <use xlink:href="#path-87"></use>
                </mask>
                <g id="Clip-3062"></g>
            </g>
            <g id="Group-3179"></g>
        </g>
    </g>
</svg>