<?xml version="1.0" encoding="UTF-8" standalone="no"?>
<svg width="60px" height="60px" viewBox="0 0 60 60" version="1.1" xmlns="http://www.w3.org/2000/svg" xmlns:xlink="http://www.w3.org/1999/xlink" xmlns:sketch="http://www.bohemiancoding.com/sketch/ns">
    <!-- Generator: Sketch 3.5.2 (25235) - http://www.bohemiancoding.com/sketch -->
    <title>Humantarget</title>
    <desc>Created with Sketch.</desc>
    <defs>
        <path id="path-1" d="M0,0.782 L935.887,0.782 L935.887,1743 L0,1743 L0,0.782 Z"></path>
        <path id="path-3" d="M0,0.782 L935.887,0.782 L935.887,1743 L0,1743 L0,0.782 Z"></path>
        <path id="path-5" d="M0,0.782 L935.887,0.782 L935.887,1743 L0,1743 L0,0.782 Z"></path>
        <path id="path-7" d="M0,0.782 L935.887,0.782 L935.887,1743 L0,1743 L0,0.782 Z"></path>
        <path id="path-9" d="M0,0.782 L935.887,0.782 L935.887,1743 L0,1743 L0,0.782 Z"></path>
        <path id="path-11" d="M0,0.782 L935.887,0.782 L935.887,1743 L0,1743 L0,0.782 Z"></path>
        <path id="path-13" d="M0,0.782 L935.887,0.782 L935.887,1743 L0,1743 L0,0.782 Z"></path>
        <path id="path-15" d="M0,0.782 L935.887,0.782 L935.887,1743 L0,1743 L0,0.782 Z"></path>
        <path id="path-17" d="M0,0.782 L935.887,0.782 L935.887,1743 L0,1743 L0,0.782 Z"></path>
        <path id="path-19" d="M0,0.782 L935.887,0.782 L935.887,1743 L0,1743 L0,0.782 Z"></path>
        <path id="path-21" d="M0,0.782 L935.887,0.782 L935.887,1743 L0,1743 L0,0.782 Z"></path>
        <path id="path-23" d="M0,0.782 L935.887,0.782 L935.887,1743 L0,1743 L0,0.782 Z"></path>
        <path id="path-25" d="M0,0.782 L935.887,0.782 L935.887,1743 L0,1743 L0,0.782 Z"></path>
        <path id="path-27" d="M0,0.782 L935.887,0.782 L935.887,1743 L0,1743 L0,0.782 Z"></path>
        <path id="path-29" d="M0,0.782 L935.887,0.782 L935.887,1743 L0,1743 L0,0.782 Z"></path>
        <path id="path-31" d="M0,0.782 L935.887,0.782 L935.887,1743 L0,1743 L0,0.782 Z"></path>
        <path id="path-33" d="M0,0.782 L935.887,0.782 L935.887,1743 L0,1743 L0,0.782 Z"></path>
        <path id="path-35" d="M0,0.782 L935.887,0.782 L935.887,1743 L0,1743 L0,0.782 Z"></path>
        <path id="path-37" d="M0,0.782 L935.887,0.782 L935.887,1743 L0,1743 L0,0.782 Z"></path>
        <path id="path-39" d="M0,0.782 L935.887,0.782 L935.887,1743 L0,1743 L0,0.782 Z"></path>
        <path id="path-41" d="M0,0.782 L935.887,0.782 L935.887,1743 L0,1743 L0,0.782 Z"></path>
        <path id="path-43" d="M0,0.782 L935.887,0.782 L935.887,1743 L0,1743 L0,0.782 Z"></path>
        <path id="path-45" d="M0,0.782 L935.887,0.782 L935.887,1743 L0,1743 L0,0.782 Z"></path>
        <path id="path-47" d="M0,0.782 L935.887,0.782 L935.887,1743 L0,1743 L0,0.782 Z"></path>
        <path id="path-49" d="M0,0.782 L935.887,0.782 L935.887,1743 L0,1743 L0,0.782 Z"></path>
        <path id="path-51" d="M0,0.782 L935.887,0.782 L935.887,1743 L0,1743 L0,0.782 Z"></path>
        <path id="path-53" d="M0.886,11.782 L22.887,11.782 C22.887,5.707 17.962,0.783 11.887,0.783 L11.887,0.783 C5.811,0.783 0.886,5.707 0.886,11.782 L0.886,11.782 Z"></path>
        <path id="path-55" d="M3.104,9.886 C1.827,10.229 0.886,11.396 0.886,12.783 L0.886,12.783 C0.886,14.254 1.946,15.478 3.344,15.734 L3.344,15.734 C4.62,20.399 8.409,23.783 12.887,23.783 L12.887,23.783 C17.363,23.783 21.154,20.399 22.429,15.734 L22.429,15.734 C23.826,15.478 24.887,14.254 24.887,12.783 L24.887,12.783 C24.887,11.396 23.946,10.229 22.669,9.886 L22.669,9.886 C21.711,4.685 17.695,0.782 12.887,0.782 L12.887,0.782 C8.078,0.782 4.063,4.685 3.104,9.886 L3.104,9.886 Z"></path>
        <path id="path-57" d="M0,0.782 L935.887,0.782 L935.887,1743 L0,1743 L0,0.782 Z"></path>
        <path id="path-59" d="M0,0.782 L935.887,0.782 L935.887,1743 L0,1743 L0,0.782 Z"></path>
        <path id="path-61" d="M0,0.782 L935.887,0.782 L935.887,1743 L0,1743 L0,0.782 Z"></path>
        <path id="path-63" d="M0,0.782 L935.887,0.782 L935.887,1743 L0,1743 L0,0.782 Z"></path>
        <path id="path-65" d="M0,0.782 L935.887,0.782 L935.887,1743 L0,1743 L0,0.782 Z"></path>
        <path id="path-67" d="M0,0.782 L935.887,0.782 L935.887,1743 L0,1743 L0,0.782 Z"></path>
        <path id="path-69" d="M0,0.782 L935.887,0.782 L935.887,1743 L0,1743 L0,0.782 Z"></path>
        <path id="path-71" d="M0,0.782 L935.887,0.782 L935.887,1743 L0,1743 L0,0.782 Z"></path>
        <path id="path-73" d="M0,0.782 L935.887,0.782 L935.887,1743 L0,1743 L0,0.782 Z"></path>
        <path id="path-75" d="M0,0.782 L935.887,0.782 L935.887,1743 L0,1743 L0,0.782 Z"></path>
        <path id="path-77" d="M0,0.782 L935.887,0.782 L935.887,1743 L0,1743 L0,0.782 Z"></path>
        <path id="path-79" d="M0,0.782 L935.887,0.782 L935.887,1743 L0,1743 L0,0.782 Z"></path>
        <path id="path-81" d="M0,0.782 L935.887,0.782 L935.887,1743 L0,1743 L0,0.782 Z"></path>
        <path id="path-83" d="M0,0.782 L935.887,0.782 L935.887,1743 L0,1743 L0,0.782 Z"></path>
        <path id="path-85" d="M0,0.782 L935.887,0.782 L935.887,1743 L0,1743 L0,0.782 Z"></path>
        <path id="path-87" d="M0,0.782 L935.887,0.782 L935.887,1743 L0,1743 L0,0.782 Z"></path>
        <path id="path-89" d="M0,0.782 L935.887,0.782 L935.887,1743 L0,1743 L0,0.782 Z"></path>
    </defs>
    <g id="flat" stroke="none" stroke-width="1" fill="none" fill-rule="evenodd" sketch:type="MSPage">
        <g id="Marketing_sliced" sketch:type="MSLayerGroup" transform="translate(-720.000000, -960.000000)"></g>
        <g id="Page-1" sketch:type="MSLayerGroup" transform="translate(-740.826418, -955.768558)">
            <g id="Group-87">
                <mask id="mask-2" sketch:name="Clip 79" fill="white">
                    <use xlink:href="#path-1"></use>
                </mask>
                <g id="Clip-79"></g>
            </g>
            <g id="Group-378">
                <mask id="mask-4" sketch:name="Clip 375" fill="white">
                    <use xlink:href="#path-3"></use>
                </mask>
                <g id="Clip-375"></g>
            </g>
            <g id="Group-403">
                <mask id="mask-6" sketch:name="Clip 400" fill="white">
                    <use xlink:href="#path-5"></use>
                </mask>
                <g id="Clip-400"></g>
            </g>
            <g id="Group-429">
                <mask id="mask-8" sketch:name="Clip 423" fill="white">
                    <use xlink:href="#path-7"></use>
                </mask>
                <g id="Clip-423"></g>
            </g>
            <g id="Group-449">
                <mask id="mask-10" sketch:name="Clip 447" fill="white">
                    <use xlink:href="#path-9"></use>
                </mask>
                <g id="Clip-447"></g>
            </g>
            <g id="Group-475">
                <mask id="mask-12" sketch:name="Clip 471" fill="white">
                    <use xlink:href="#path-11"></use>
                </mask>
                <g id="Clip-471"></g>
            </g>
            <g id="Group-493">
                <mask id="mask-14" sketch:name="Clip 491" fill="white">
                    <use xlink:href="#path-13"></use>
                </mask>
                <g id="Clip-491"></g>
            </g>
            <g id="Group-513"></g>
            <g id="Group-533"></g>
            <g id="Group-565"></g>
            <g id="Group-572"></g>
            <g id="Group-581">
                <mask id="mask-16" sketch:name="Clip 579" fill="white">
                    <use xlink:href="#path-15"></use>
                </mask>
                <g id="Clip-579"></g>
            </g>
            <g id="Group-597"></g>
            <g id="Group-608"></g>
            <g id="Group-651">
                <mask id="mask-18" sketch:name="Clip 646" fill="white">
                    <use xlink:href="#path-17"></use>
                </mask>
                <g id="Clip-646"></g>
            </g>
            <g id="Group-690">
                <mask id="mask-20" sketch:name="Clip 686" fill="white">
                    <use xlink:href="#path-19"></use>
                </mask>
                <g id="Clip-686"></g>
            </g>
            <g id="Group-704">
                <mask id="mask-22" sketch:name="Clip 697" fill="white">
                    <use xlink:href="#path-21"></use>
                </mask>
                <g id="Clip-697"></g>
            </g>
            <g id="Group-717">
                <mask id="mask-24" sketch:name="Clip 711" fill="white">
                    <use xlink:href="#path-23"></use>
                </mask>
                <g id="Clip-711"></g>
            </g>
            <g id="Group-753">
                <mask id="mask-26" sketch:name="Clip 749" fill="white">
                    <use xlink:href="#path-25"></use>
                </mask>
                <g id="Clip-749"></g>
            </g>
            <g id="Group-774">
                <mask id="mask-28" sketch:name="Clip 773" fill="white">
                    <use xlink:href="#path-27"></use>
                </mask>
                <g id="Clip-773"></g>
            </g>
            <g id="Group-793">
                <mask id="mask-30" sketch:name="Clip 792" fill="white">
                    <use xlink:href="#path-29"></use>
                </mask>
                <g id="Clip-792"></g>
            </g>
            <g id="Group-831"></g>
            <g id="Group-941"></g>
            <g id="Group-948"></g>
            <g id="Group-976"></g>
            <g id="Group-996"></g>
            <g id="Group-1008"></g>
            <g id="Group-1068"></g>
            <g id="Group-1086">
                <mask id="mask-32" sketch:name="Clip 1085" fill="white">
                    <use xlink:href="#path-31"></use>
                </mask>
                <g id="Clip-1085"></g>
            </g>
            <g id="Group-1111">
                <mask id="mask-34" sketch:name="Clip 1109" fill="white">
                    <use xlink:href="#path-33"></use>
                </mask>
                <g id="Clip-1109"></g>
            </g>
            <g id="Group-1122">
                <mask id="mask-36" sketch:name="Clip 1118" fill="white">
                    <use xlink:href="#path-35"></use>
                </mask>
                <g id="Clip-1118"></g>
            </g>
            <g id="Group-1164"></g>
            <g id="Group-1181"></g>
            <g id="Group-1191"></g>
            <g id="Group-1201">
                <mask id="mask-38" sketch:name="Clip 1198" fill="white">
                    <use xlink:href="#path-37"></use>
                </mask>
                <g id="Clip-1198"></g>
            </g>
            <g id="Group-1215"></g>
            <g id="Group-1245"></g>
            <g id="Group-1382"></g>
            <g id="Group-1412">
                <mask id="mask-40" sketch:name="Clip 1411" fill="white">
                    <use xlink:href="#path-39"></use>
                </mask>
                <g id="Clip-1411"></g>
            </g>
            <g id="Group-1435"></g>
            <g id="Group-1546"></g>
            <g id="Group-1585">
                <mask id="mask-42" sketch:name="Clip 1583" fill="white">
                    <use xlink:href="#path-41"></use>
                </mask>
                <g id="Clip-1583"></g>
            </g>
            <g id="Group-1601"></g>
            <g id="Group-1658">
                <mask id="mask-44" sketch:name="Clip 1655" fill="white">
                    <use xlink:href="#path-43"></use>
                </mask>
                <g id="Clip-1655"></g>
            </g>
            <g id="Group-1677">
                <mask id="mask-46" sketch:name="Clip 1675" fill="white">
                    <use xlink:href="#path-45"></use>
                </mask>
                <g id="Clip-1675"></g>
            </g>
            <g id="Group-1688">
                <mask id="mask-48" sketch:name="Clip 1684" fill="white">
                    <use xlink:href="#path-47"></use>
                </mask>
                <g id="Clip-1684"></g>
            </g>
            <g id="Group-1695"></g>
            <g id="Group-1702"></g>
            <g id="Group-1725">
                <mask id="mask-50" sketch:name="Clip 1723" fill="white">
                    <use xlink:href="#path-49"></use>
                </mask>
                <g id="Clip-1723"></g>
            </g>
            <g id="Group-1815">
                <mask id="mask-52" sketch:name="Clip 1794" fill="white">
                    <use xlink:href="#path-51"></use>
                </mask>
                <g id="Clip-1794"></g>
            </g>
            <g id="Group-1818" transform="translate(759.000000, 991.000000)">
                <mask id="mask-54" sketch:name="Clip 1817" fill="white">
                    <use xlink:href="#path-53"></use>
                </mask>
                <g id="Clip-1817"></g>
                <path d="M-4.113,-4.218 L27.887,-4.218 L27.887,16.782 L-4.113,16.782 L-4.113,-4.218 Z" id="Fill-1816" fill="#FE7D71" sketch:type="MSShapeGroup" mask="url(#mask-54)"></path>
            </g>
            <path d="M760.9364,1001.7825 L780.8364,1001.7825 C780.3334,996.7365 776.0634,992.7825 770.8864,992.7825 C765.7094,992.7825 761.4394,996.7365 760.9364,1001.7825 M781.8864,1003.7825 L759.8864,1003.7825 C759.3334,1003.7825 758.8864,1003.3355 758.8864,1002.7825 C758.8864,996.1655 764.2694,990.7825 770.8864,990.7825 C777.5034,990.7825 782.8864,996.1655 782.8864,1002.7825 C782.8864,1003.3355 782.4394,1003.7825 781.8864,1003.7825" id="Fill-1819" fill="#FE7D71" sketch:type="MSShapeGroup"></path>
            <g id="Group-1823" transform="translate(758.000000, 968.000000)">
                <mask id="mask-56" sketch:name="Clip 1822" fill="white">
                    <use xlink:href="#path-55"></use>
                </mask>
                <g id="Clip-1822"></g>
                <path d="M-4.113,-4.218 L29.887,-4.218 L29.887,28.782 L-4.113,28.782 L-4.113,-4.218 Z" id="Fill-1821" fill="#EC4548" sketch:type="MSShapeGroup" mask="url(#mask-56)"></path>
            </g>
            <g id="Group-1833">
                <path d="M770.8866,969.7825 C766.6736,969.7825 762.9726,973.2665 762.0876,978.0675 C762.0176,978.4465 761.7366,978.7515 761.3646,978.8515 C760.4936,979.0865 759.8866,979.8805 759.8866,980.7825 C759.8866,981.7495 760.5746,982.5775 761.5246,982.7505 C761.9026,982.8185 762.2076,983.0985 762.3096,983.4705 C763.5036,987.8445 766.9506,990.7825 770.8866,990.7825 C774.8226,990.7825 778.2696,987.8445 779.4636,983.4705 C779.5656,983.0985 779.8706,982.8185 780.2486,982.7505 C781.1986,982.5775 781.8866,981.7495 781.8866,980.7825 C781.8866,979.8805 781.2796,979.0865 780.4086,978.8515 C780.0366,978.7515 779.7556,978.4465 779.6856,978.0675 C778.8006,973.2665 775.0996,969.7825 770.8866,969.7825 M770.8866,992.7825 C766.2096,992.7825 762.1166,989.4995 760.5436,984.5525 C758.9726,983.9945 757.8866,982.4985 757.8866,980.7825 C757.8866,979.1955 758.8266,977.7755 760.2386,977.1375 C761.4826,971.6825 765.8806,967.7825 770.8866,967.7825 C775.8926,967.7825 780.2906,971.6825 781.5346,977.1375 C782.9466,977.7755 783.8866,979.1955 783.8866,980.7825 C783.8866,982.4985 782.8006,983.9945 781.2296,984.5525 C779.6566,989.4995 775.5636,992.7825 770.8866,992.7825" id="Fill-1824" fill="#EC4548" sketch:type="MSShapeGroup"></path>
                <path d="M770.8866,958.7825 C755.9986,958.7825 743.8866,970.8945 743.8866,985.7825 C743.8866,1000.6705 755.9986,1012.7825 770.8866,1012.7825 C785.7746,1012.7825 797.8866,1000.6705 797.8866,985.7825 C797.8866,970.8945 785.7746,958.7825 770.8866,958.7825 M770.8866,1014.7825 C754.8966,1014.7825 741.8866,1001.7725 741.8866,985.7825 C741.8866,969.7925 754.8966,956.7825 770.8866,956.7825 C786.8766,956.7825 799.8866,969.7925 799.8866,985.7825 C799.8866,1001.7725 786.8766,1014.7825 770.8866,1014.7825" id="Fill-1826" fill="#535353" sketch:type="MSShapeGroup"></path>
                <mask id="mask-58" sketch:name="Clip 1829" fill="white">
                    <use xlink:href="#path-57"></use>
                </mask>
                <g id="Clip-1829"></g>
                <path d="M799.887,986.782 L790.887,986.782 L790.887,984.782 L799.887,984.782 L799.887,986.782 Z" id="Fill-1828" fill="#535353" sketch:type="MSShapeGroup" mask="url(#mask-58)"></path>
                <path d="M771.887,964.782 L769.887,964.782 L769.887,956.782 L771.887,956.782 L771.887,964.782 Z" id="Fill-1830" fill="#535353" sketch:type="MSShapeGroup" mask="url(#mask-58)"></path>
                <path d="M771.887,1014.782 L769.887,1014.782 L769.887,1006.782 L771.887,1006.782 L771.887,1014.782 Z" id="Fill-1831" fill="#535353" sketch:type="MSShapeGroup" mask="url(#mask-58)"></path>
                <path d="M750.887,986.782 L741.887,986.782 L741.887,984.782 L750.887,984.782 L750.887,986.782 Z" id="Fill-1832" fill="#535353" sketch:type="MSShapeGroup" mask="url(#mask-58)"></path>
            </g>
            <g id="Group-1905">
                <mask id="mask-60" sketch:name="Clip 1901" fill="white">
                    <use xlink:href="#path-59"></use>
                </mask>
                <g id="Clip-1901"></g>
            </g>
            <g id="Group-1977"></g>
            <g id="Group-1996">
                <mask id="mask-62" sketch:name="Clip 1989" fill="white">
                    <use xlink:href="#path-61"></use>
                </mask>
                <g id="Clip-1989"></g>
            </g>
            <g id="Group-2093"></g>
            <g id="Group-2166"></g>
            <g id="Group-2184"></g>
            <g id="Group-2241"></g>
            <g id="Group-2249"></g>
            <g id="Group-2307">
                <mask id="mask-64" sketch:name="Clip 2304" fill="white">
                    <use xlink:href="#path-63"></use>
                </mask>
                <g id="Clip-2304"></g>
            </g>
            <g id="Group-2356">
                <mask id="mask-66" sketch:name="Clip 2354" fill="white">
                    <use xlink:href="#path-65"></use>
                </mask>
                <g id="Clip-2354"></g>
            </g>
            <g id="Group-2363"></g>
            <g id="Group-2375">
                <mask id="mask-68" sketch:name="Clip 2373" fill="white">
                    <use xlink:href="#path-67"></use>
                </mask>
                <g id="Clip-2373"></g>
            </g>
            <g id="Group-2389">
                <mask id="mask-70" sketch:name="Clip 2385" fill="white">
                    <use xlink:href="#path-69"></use>
                </mask>
                <g id="Clip-2385"></g>
            </g>
            <g id="Group-2557">
                <mask id="mask-72" sketch:name="Clip 2555" fill="white">
                    <use xlink:href="#path-71"></use>
                </mask>
                <g id="Clip-2555"></g>
            </g>
            <g id="Group-2591">
                <mask id="mask-74" sketch:name="Clip 2585" fill="white">
                    <use xlink:href="#path-73"></use>
                </mask>
                <g id="Clip-2585"></g>
            </g>
            <g id="Group-2745">
                <mask id="mask-76" sketch:name="Clip 2742" fill="white">
                    <use xlink:href="#path-75"></use>
                </mask>
                <g id="Clip-2742"></g>
            </g>
            <g id="Group-2762">
                <mask id="mask-78" sketch:name="Clip 2752" fill="white">
                    <use xlink:href="#path-77"></use>
                </mask>
                <g id="Clip-2752"></g>
            </g>
            <g id="Group-2775">
                <mask id="mask-80" sketch:name="Clip 2769" fill="white">
                    <use xlink:href="#path-79"></use>
                </mask>
                <g id="Clip-2769"></g>
            </g>
            <g id="Group-2890">
                <mask id="mask-82" sketch:name="Clip 2889" fill="white">
                    <use xlink:href="#path-81"></use>
                </mask>
                <g id="Clip-2889"></g>
            </g>
            <g id="Group-2905">
                <mask id="mask-84" sketch:name="Clip 2904" fill="white">
                    <use xlink:href="#path-83"></use>
                </mask>
                <g id="Clip-2904"></g>
            </g>
            <g id="Group-2914">
                <mask id="mask-86" sketch:name="Clip 2912" fill="white">
                    <use xlink:href="#path-85"></use>
                </mask>
                <g id="Clip-2912"></g>
            </g>
            <g id="Group-2924"></g>
            <g id="Group-2942">
                <mask id="mask-88" sketch:name="Clip 2941" fill="white">
                    <use xlink:href="#path-87"></use>
                </mask>
                <g id="Clip-2941"></g>
            </g>
            <g id="Group-3073">
                <mask id="mask-90" sketch:name="Clip 3062" fill="white">
                    <use xlink:href="#path-89"></use>
                </mask>
                <g id="Clip-3062"></g>
            </g>
            <g id="Group-3179"></g>
        </g>
    </g>
</svg>