<?xml version="1.0" encoding="UTF-8" standalone="no"?>
<svg width="60px" height="60px" viewBox="0 0 60 60" version="1.1" xmlns="http://www.w3.org/2000/svg" xmlns:xlink="http://www.w3.org/1999/xlink" xmlns:sketch="http://www.bohemiancoding.com/sketch/ns">
    <!-- Generator: Sketch 3.5.2 (25235) - http://www.bohemiancoding.com/sketch -->
    <title>Optimplaces</title>
    <desc>Created with Sketch.</desc>
    <defs>
        <path id="path-1" d="M0,0.022 L938,0.022 L938,2242 L0,2242 L0,0.022 Z"></path>
        <path id="path-3" d="M0,0.022 L938,0.022 L938,2242 L0,2242 L0,0.022 Z"></path>
        <path id="path-5" d="M0,0.022 L938,0.022 L938,2242 L0,2242 L0,0.022 Z"></path>
        <path id="path-7" d="M0,0.022 L938,0.022 L938,2242 L0,2242 L0,0.022 Z"></path>
        <path id="path-9" d="M0,0.022 L938,0.022 L938,2242 L0,2242 L0,0.022 Z"></path>
        <path id="path-11" d="M0,0.022 L938,0.022 L938,2242 L0,2242 L0,0.022 Z"></path>
        <path id="path-13" d="M0,0.022 L938,0.022 L938,2242 L0,2242 L0,0.022 Z"></path>
        <path id="path-15" d="M0,0.022 L938,0.022 L938,2242 L0,2242 L0,0.022 Z"></path>
        <path id="path-17" d="M0,0.022 L938,0.022 L938,2242 L0,2242 L0,0.022 Z"></path>
        <path id="path-19" d="M0,0.022 L938,0.022 L938,2242 L0,2242 L0,0.022 Z"></path>
        <path id="path-21" d="M0,0.022 L938,0.022 L938,2242 L0,2242 L0,0.022 Z"></path>
        <path id="path-23" d="M0,0.022 L938,0.022 L938,2242 L0,2242 L0,0.022 Z"></path>
        <path id="path-25" d="M0,0.022 L938,0.022 L938,2242 L0,2242 L0,0.022 Z"></path>
        <path id="path-27" d="M0,0.022 L938,0.022 L938,2242 L0,2242 L0,0.022 Z"></path>
        <path id="path-29" d="M0,0.022 L938,0.022 L938,2242 L0,2242 L0,0.022 Z"></path>
        <path id="path-31" d="M0,0.022 L938,0.022 L938,2242 L0,2242 L0,0.022 Z"></path>
        <path id="path-33" d="M0,0.022 L938,0.022 L938,2242 L0,2242 L0,0.022 Z"></path>
        <path id="path-35" d="M0,0.022 L938,0.022 L938,2242 L0,2242 L0,0.022 Z"></path>
        <path id="path-37" d="M0,0.022 L938,0.022 L938,2242 L0,2242 L0,0.022 Z"></path>
        <path id="path-39" d="M0,0.022 L938,0.022 L938,2242 L0,2242 L0,0.022 Z"></path>
        <path id="path-41" d="M0,0.022 L938,0.022 L938,2242 L0,2242 L0,0.022 Z"></path>
        <path id="path-43" d="M0,0.022 L938,0.022 L938,2242 L0,2242 L0,0.022 Z"></path>
        <path id="path-45" d="M0,0.022 L938,0.022 L938,2242 L0,2242 L0,0.022 Z"></path>
        <path id="path-47" d="M0,0.022 L938,0.022 L938,2242 L0,2242 L0,0.022 Z"></path>
        <path id="path-49" d="M0,0.022 L938,0.022 L938,2242 L0,2242 L0,0.022 Z"></path>
        <path id="path-51" d="M0,0.022 L938,0.022 L938,2242 L0,2242 L0,0.022 Z"></path>
        <path id="path-53" d="M0,0.022 L938,0.022 L938,2242 L0,2242 L0,0.022 Z"></path>
        <path id="path-55" d="M0,0.022 L938,0.022 L938,2242 L0,2242 L0,0.022 Z"></path>
        <path id="path-57" d="M0,0.022 L938,0.022 L938,2242 L0,2242 L0,0.022 Z"></path>
        <path id="path-59" d="M0,0.022 L938,0.022 L938,2242 L0,2242 L0,0.022 Z"></path>
        <path id="path-61" d="M0,0.022 L938,0.022 L938,2242 L0,2242 L0,0.022 Z"></path>
        <path id="path-63" d="M0,0.022 L938,0.022 L938,2242 L0,2242 L0,0.022 Z"></path>
        <path id="path-65" d="M0,0.022 L938,0.022 L938,2242 L0,2242 L0,0.022 Z"></path>
        <path id="path-67" d="M0,0.022 L938,0.022 L938,2242 L0,2242 L0,0.022 Z"></path>
        <path id="path-69" d="M0,0.022 L938,0.022 L938,2242 L0,2242 L0,0.022 Z"></path>
        <path id="path-71" d="M0,0.022 L938,0.022 L938,2242 L0,2242 L0,0.022 Z"></path>
        <path id="path-73" d="M0,0.022 L938,0.022 L938,2242 L0,2242 L0,0.022 Z"></path>
        <path id="path-75" d="M0,0.022 L938,0.022 L938,2242 L0,2242 L0,0.022 Z"></path>
        <path id="path-77" d="M0,0.022 L938,0.022 L938,2242 L0,2242 L0,0.022 Z"></path>
        <path id="path-79" d="M0,0.022 L938,0.022 L938,2242 L0,2242 L0,0.022 Z"></path>
        <path id="path-81" d="M0,0.022 L938,0.022 L938,2242 L0,2242 L0,0.022 Z"></path>
        <path id="path-83" d="M0,0.022 L938,0.022 L938,2242 L0,2242 L0,0.022 Z"></path>
        <path id="path-85" d="M0,0.022 L938,0.022 L938,2242 L0,2242 L0,0.022 Z"></path>
        <path id="path-87" d="M0,0.022 L938,0.022 L938,2242 L0,2242 L0,0.022 Z"></path>
        <path id="path-89" d="M0,0.022 L938,0.022 L938,2242 L0,2242 L0,0.022 Z"></path>
        <path id="path-91" d="M0,0.022 L938,0.022 L938,2242 L0,2242 L0,0.022 Z"></path>
        <path d="M0,18 C0,27.941 13.059,54 18,54 L18,54 C22.941,54 36,27.941 36,18 L36,18 C36,8.059 27.941,0 18,0 L18,0 C8.059,0 0,8.059 0,18 L0,18 Z M4,18 C4,10.268 10.268,4 18,4 L18,4 C25.732,4 32,10.268 32,18 L32,18 C32,25.732 25.732,32 18,32 L18,32 C10.268,32 4,25.732 4,18 L4,18 Z" id="path-93"></path>
        <path id="path-95" d="M4.943,4.168 L0.342,4.837 L3.671,8.081 L2.886,12.663 L7,10.5 L11.114,12.663 L10.329,8.081 L13.658,4.837 L9.057,4.168 L7,0 L4.943,4.168 Z"></path>
        <path id="path-97" d="M0,0.022 L938,0.022 L938,2242 L0,2242 L0,0.022 Z"></path>
        <path id="path-99" d="M0,0.022 L938,0.022 L938,2242 L0,2242 L0,0.022 Z"></path>
        <path id="path-101" d="M0,0.022 L938,0.022 L938,2242 L0,2242 L0,0.022 Z"></path>
        <path id="path-103" d="M0,0.022 L938,0.022 L938,2242 L0,2242 L0,0.022 Z"></path>
        <path id="path-105" d="M0,0.022 L938,0.022 L938,2242 L0,2242 L0,0.022 Z"></path>
        <path id="path-107" d="M0,0.022 L938,0.022 L938,2242 L0,2242 L0,0.022 Z"></path>
        <path id="path-109" d="M0,0.022 L938,0.022 L938,2242 L0,2242 L0,0.022 Z"></path>
        <path id="path-111" d="M0,0.022 L938,0.022 L938,2242 L0,2242 L0,0.022 Z"></path>
        <path id="path-113" d="M0,0.022 L938,0.022 L938,2242 L0,2242 L0,0.022 Z"></path>
        <path id="path-115" d="M0,0.022 L938,0.022 L938,2242 L0,2242 L0,0.022 Z"></path>
    </defs>
    <g id="flat" stroke="none" stroke-width="1" fill="none" fill-rule="evenodd" sketch:type="MSPage">
        <g id="Tech_sliced" sketch:type="MSLayerGroup" transform="translate(-720.000000, -1920.000000)"></g>
        <g id="Page-1" sketch:type="MSLayerGroup" transform="translate(-738.000000, -1929.000000)">
            <g id="Group-148">
                <mask id="mask-2" sketch:name="Clip 147" fill="white">
                    <use xlink:href="#path-1"></use>
                </mask>
                <g id="Clip-147"></g>
            </g>
            <g id="Group-186">
                <mask id="mask-4" sketch:name="Clip 182" fill="white">
                    <use xlink:href="#path-3"></use>
                </mask>
                <g id="Clip-182"></g>
            </g>
            <g id="Group-197">
                <mask id="mask-6" sketch:name="Clip 193" fill="white">
                    <use xlink:href="#path-5"></use>
                </mask>
                <g id="Clip-193"></g>
            </g>
            <g id="Group-237"></g>
            <g id="Group-272">
                <mask id="mask-8" sketch:name="Clip 244" fill="white">
                    <use xlink:href="#path-7"></use>
                </mask>
                <g id="Clip-244"></g>
            </g>
            <g id="Group-289">
                <mask id="mask-10" sketch:name="Clip 285" fill="white">
                    <use xlink:href="#path-9"></use>
                </mask>
                <g id="Clip-285"></g>
            </g>
            <g id="Group-306">
                <mask id="mask-12" sketch:name="Clip 302" fill="white">
                    <use xlink:href="#path-11"></use>
                </mask>
                <g id="Clip-302"></g>
            </g>
            <g id="Group-363">
                <mask id="mask-14" sketch:name="Clip 357" fill="white">
                    <use xlink:href="#path-13"></use>
                </mask>
                <g id="Clip-357"></g>
            </g>
            <g id="Group-538">
                <mask id="mask-16" sketch:name="Clip 537" fill="white">
                    <use xlink:href="#path-15"></use>
                </mask>
                <g id="Clip-537"></g>
            </g>
            <g id="Group-546">
                <mask id="mask-18" sketch:name="Clip 545" fill="white">
                    <use xlink:href="#path-17"></use>
                </mask>
                <g id="Clip-545"></g>
            </g>
            <g id="Group-587">
                <mask id="mask-20" sketch:name="Clip 585" fill="white">
                    <use xlink:href="#path-19"></use>
                </mask>
                <g id="Clip-585"></g>
            </g>
            <g id="Group-601">
                <mask id="mask-22" sketch:name="Clip 596" fill="white">
                    <use xlink:href="#path-21"></use>
                </mask>
                <g id="Clip-596"></g>
            </g>
            <g id="Group-666"></g>
            <g id="Group-779"></g>
            <g id="Group-786"></g>
            <g id="Group-797"></g>
            <g id="Group-827">
                <mask id="mask-24" sketch:name="Clip 822" fill="white">
                    <use xlink:href="#path-23"></use>
                </mask>
                <g id="Clip-822"></g>
            </g>
            <g id="Group-853"></g>
            <g id="Group-891"></g>
            <g id="Group-935">
                <mask id="mask-26" sketch:name="Clip 932" fill="white">
                    <use xlink:href="#path-25"></use>
                </mask>
                <g id="Clip-932"></g>
            </g>
            <g id="Group-948"></g>
            <g id="Group-963">
                <mask id="mask-28" sketch:name="Clip 960" fill="white">
                    <use xlink:href="#path-27"></use>
                </mask>
                <g id="Clip-960"></g>
            </g>
            <g id="Group-978">
                <mask id="mask-30" sketch:name="Clip 975" fill="white">
                    <use xlink:href="#path-29"></use>
                </mask>
                <g id="Clip-975"></g>
            </g>
            <g id="Group-1005"></g>
            <g id="Group-1024">
                <mask id="mask-32" sketch:name="Clip 1017" fill="white">
                    <use xlink:href="#path-31"></use>
                </mask>
                <g id="Clip-1017"></g>
            </g>
            <g id="Group-1042">
                <mask id="mask-34" sketch:name="Clip 1041" fill="white">
                    <use xlink:href="#path-33"></use>
                </mask>
                <g id="Clip-1041"></g>
            </g>
            <g id="Group-1083">
                <mask id="mask-36" sketch:name="Clip 1081" fill="white">
                    <use xlink:href="#path-35"></use>
                </mask>
                <g id="Clip-1081"></g>
            </g>
            <g id="Group-1125"></g>
            <g id="Group-1216"></g>
            <g id="Group-1228"></g>
            <g id="Group-1281">
                <mask id="mask-38" sketch:name="Clip 1279" fill="white">
                    <use xlink:href="#path-37"></use>
                </mask>
                <g id="Clip-1279"></g>
            </g>
            <g id="Group-1297">
                <mask id="mask-40" sketch:name="Clip 1288" fill="white">
                    <use xlink:href="#path-39"></use>
                </mask>
                <g id="Clip-1288"></g>
            </g>
            <g id="Group-1339"></g>
            <g id="Group-1414"></g>
            <g id="Group-1431"></g>
            <g id="Group-1451"></g>
            <g id="Group-1466"></g>
            <g id="Group-1480"></g>
            <g id="Group-1497"></g>
            <g id="Group-1521"></g>
            <g id="Group-1548"></g>
            <g id="Group-1652"></g>
            <g id="Group-1660">
                <mask id="mask-42" sketch:name="Clip 1659" fill="white">
                    <use xlink:href="#path-41"></use>
                </mask>
                <g id="Clip-1659"></g>
            </g>
            <g id="Group-1684"></g>
            <g id="Group-1772"></g>
            <g id="Group-1809">
                <mask id="mask-44" sketch:name="Clip 1808" fill="white">
                    <use xlink:href="#path-43"></use>
                </mask>
                <g id="Clip-1808"></g>
            </g>
            <g id="Group-1828">
                <mask id="mask-46" sketch:name="Clip 1825" fill="white">
                    <use xlink:href="#path-45"></use>
                </mask>
                <g id="Clip-1825"></g>
            </g>
            <g id="Group-1843"></g>
            <g id="Group-1857">
                <mask id="mask-48" sketch:name="Clip 1855" fill="white">
                    <use xlink:href="#path-47"></use>
                </mask>
                <g id="Clip-1855"></g>
            </g>
            <g id="Group-1903">
                <mask id="mask-50" sketch:name="Clip 1902" fill="white">
                    <use xlink:href="#path-49"></use>
                </mask>
                <g id="Clip-1902"></g>
            </g>
            <g id="Group-1938">
                <mask id="mask-52" sketch:name="Clip 1935" fill="white">
                    <use xlink:href="#path-51"></use>
                </mask>
                <g id="Clip-1935"></g>
            </g>
            <g id="Group-2047"></g>
            <g id="Group-2058">
                <mask id="mask-54" sketch:name="Clip 2054" fill="white">
                    <use xlink:href="#path-53"></use>
                </mask>
                <g id="Clip-2054"></g>
            </g>
            <g id="Group-2078"></g>
            <g id="Group-2104"></g>
            <g id="Group-2113">
                <mask id="mask-56" sketch:name="Clip 2111" fill="white">
                    <use xlink:href="#path-55"></use>
                </mask>
                <g id="Clip-2111"></g>
            </g>
            <g id="Group-2239"></g>
            <g id="Group-2249">
                <mask id="mask-58" sketch:name="Clip 2246" fill="white">
                    <use xlink:href="#path-57"></use>
                </mask>
                <g id="Clip-2246"></g>
            </g>
            <g id="Group-2259">
                <mask id="mask-60" sketch:name="Clip 2256" fill="white">
                    <use xlink:href="#path-59"></use>
                </mask>
                <g id="Clip-2256"></g>
            </g>
            <g id="Group-2448"></g>
            <g id="Group-2477">
                <mask id="mask-62" sketch:name="Clip 2476" fill="white">
                    <use xlink:href="#path-61"></use>
                </mask>
                <g id="Clip-2476"></g>
            </g>
            <g id="Group-2497">
                <mask id="mask-64" sketch:name="Clip 2495" fill="white">
                    <use xlink:href="#path-63"></use>
                </mask>
                <g id="Clip-2495"></g>
            </g>
            <g id="Group-2536"></g>
            <g id="Group-2563">
                <mask id="mask-66" sketch:name="Clip 2562" fill="white">
                    <use xlink:href="#path-65"></use>
                </mask>
                <g id="Clip-2562"></g>
            </g>
            <g id="Group-2583">
                <mask id="mask-68" sketch:name="Clip 2582" fill="white">
                    <use xlink:href="#path-67"></use>
                </mask>
                <g id="Clip-2582"></g>
            </g>
            <g id="Group-2679"></g>
            <g id="Group-2698">
                <mask id="mask-70" sketch:name="Clip 2695" fill="white">
                    <use xlink:href="#path-69"></use>
                </mask>
                <g id="Clip-2695"></g>
            </g>
            <g id="Group-2771">
                <mask id="mask-72" sketch:name="Clip 2765" fill="white">
                    <use xlink:href="#path-71"></use>
                </mask>
                <g id="Clip-2765"></g>
            </g>
            <g id="Group-2811"></g>
            <g id="Group-2833">
                <mask id="mask-74" sketch:name="Clip 2832" fill="white">
                    <use xlink:href="#path-73"></use>
                </mask>
                <g id="Clip-2832"></g>
            </g>
            <g id="Group-2841">
                <mask id="mask-76" sketch:name="Clip 2840" fill="white">
                    <use xlink:href="#path-75"></use>
                </mask>
                <g id="Clip-2840"></g>
            </g>
            <g id="Group-2890"></g>
            <g id="Group-2917"></g>
            <g id="Group-2953"></g>
            <g id="Group-3003"></g>
            <g id="Group-3025"></g>
            <g id="Group-3087">
                <mask id="mask-78" sketch:name="Clip 3085" fill="white">
                    <use xlink:href="#path-77"></use>
                </mask>
                <g id="Clip-3085"></g>
            </g>
            <g id="Group-3115"></g>
            <g id="Group-3131">
                <mask id="mask-80" sketch:name="Clip 3128" fill="white">
                    <use xlink:href="#path-79"></use>
                </mask>
                <g id="Clip-3128"></g>
            </g>
            <g id="Group-3146">
                <mask id="mask-82" sketch:name="Clip 3144" fill="white">
                    <use xlink:href="#path-81"></use>
                </mask>
                <g id="Clip-3144"></g>
            </g>
            <g id="Group-3160">
                <mask id="mask-84" sketch:name="Clip 3155" fill="white">
                    <use xlink:href="#path-83"></use>
                </mask>
                <g id="Clip-3155"></g>
            </g>
            <g id="Group-3170">
                <mask id="mask-86" sketch:name="Clip 3167" fill="white">
                    <use xlink:href="#path-85"></use>
                </mask>
                <g id="Clip-3167"></g>
            </g>
            <g id="Group-3222">
                <mask id="mask-88" sketch:name="Clip 3219" fill="white">
                    <use xlink:href="#path-87"></use>
                </mask>
                <g id="Clip-3219"></g>
            </g>
            <g id="Group-3263">
                <mask id="mask-90" sketch:name="Clip 3260" fill="white">
                    <use xlink:href="#path-89"></use>
                </mask>
                <g id="Clip-3260"></g>
            </g>
            <g id="Group-3289">
                <mask id="mask-92" sketch:name="Clip 3283" fill="white">
                    <use xlink:href="#path-91"></use>
                </mask>
                <g id="Clip-3283"></g>
            </g>
            <g id="Group-3330"></g>
            <g id="Group-3359" transform="translate(751.000000, 1932.000000)">
                <mask id="mask-94" sketch:name="Clip 3358" fill="white">
                    <use xlink:href="#path-93"></use>
                </mask>
                <g id="Clip-3358"></g>
                <path d="M-5,-5 L41,-5 L41,59 L-5,59 L-5,-5 Z" id="Fill-3357" fill="#FD5A5A" sketch:type="MSShapeGroup" mask="url(#mask-94)"></path>
            </g>
            <path d="M769,1937 C761.832,1937 756,1942.832 756,1950 C756,1957.168 761.832,1963 769,1963 C776.168,1963 782,1957.168 782,1950 C782,1942.832 776.168,1937 769,1937 M769,1965 C760.729,1965 754,1958.271 754,1950 C754,1941.729 760.729,1935 769,1935 C777.271,1935 784,1941.729 784,1950 C784,1958.271 777.271,1965 769,1965 M769,1933 C759.626,1933 752,1940.626 752,1950 C752,1960.004 764.98,1985 769,1985 C773.02,1985 786,1960.004 786,1950 C786,1940.626 778.374,1933 769,1933 M769,1987 C763.019,1987 750,1959.749 750,1950 C750,1939.523 758.523,1931 769,1931 C779.477,1931 788,1939.523 788,1950 C788,1959.749 774.981,1987 769,1987" id="Fill-3360" fill="#FD5A5A" sketch:type="MSShapeGroup"></path>
            <g id="Group-3364" transform="translate(762.000000, 1942.000000)">
                <mask id="mask-96" sketch:name="Clip 3363" fill="white">
                    <use xlink:href="#path-95"></use>
                </mask>
                <g id="Clip-3363"></g>
                <path d="M-4.657,-5 L18.658,-5 L18.658,17.663 L-4.657,17.663 L-4.657,-5 Z" id="Fill-3362" fill="#FCC24C" sketch:type="MSShapeGroup" mask="url(#mask-96)"></path>
            </g>
            <path d="M769,1951.5 C769.16,1951.5 769.319,1951.538 769.466,1951.615 L771.786,1952.835 L771.344,1950.251 C771.288,1949.927 771.396,1949.596 771.631,1949.366 L773.509,1947.535 L770.914,1947.158 C770.588,1947.111 770.307,1946.906 770.161,1946.611 L769,1944.26 L767.839,1946.611 C767.693,1946.906 767.412,1947.111 767.086,1947.158 L764.491,1947.535 L766.369,1949.366 C766.604,1949.596 766.712,1949.927 766.656,1950.251 L766.214,1952.835 L768.534,1951.615 C768.681,1951.538 768.84,1951.5 769,1951.5 M773.114,1955.663 C772.955,1955.663 772.795,1955.625 772.648,1955.548 L769,1953.63 L765.352,1955.548 C765.016,1955.727 764.607,1955.696 764.298,1955.472 C763.99,1955.248 763.836,1954.869 763.9,1954.494 L764.597,1950.431 L761.645,1947.553 C761.372,1947.287 761.274,1946.89 761.392,1946.527 C761.51,1946.166 761.822,1945.902 762.199,1945.848 L766.278,1945.255 L768.104,1941.558 C768.439,1940.874 769.561,1940.874 769.896,1941.558 L771.722,1945.255 L775.801,1945.848 C776.178,1945.902 776.49,1946.166 776.608,1946.527 C776.726,1946.89 776.628,1947.287 776.355,1947.553 L773.403,1950.431 L774.066,1954.302 C774.11,1954.414 774.134,1954.535 774.134,1954.663 C774.134,1955.216 773.687,1955.663 773.134,1955.663 C773.129,1955.664 773.121,1955.663 773.114,1955.663" id="Fill-3365" fill="#FCC24C" sketch:type="MSShapeGroup"></path>
            <g id="Group-3414">
                <mask id="mask-98" sketch:name="Clip 3412" fill="white">
                    <use xlink:href="#path-97"></use>
                </mask>
                <g id="Clip-3412"></g>
            </g>
            <g id="Group-3473"></g>
            <g id="Group-3489"></g>
            <g id="Group-3532"></g>
            <g id="Group-3556">
                <mask id="mask-100" sketch:name="Clip 3544" fill="white">
                    <use xlink:href="#path-99"></use>
                </mask>
                <g id="Clip-3544"></g>
            </g>
            <g id="Group-3574">
                <mask id="mask-102" sketch:name="Clip 3573" fill="white">
                    <use xlink:href="#path-101"></use>
                </mask>
                <g id="Clip-3573"></g>
            </g>
            <g id="Group-3693">
                <mask id="mask-104" sketch:name="Clip 3692" fill="white">
                    <use xlink:href="#path-103"></use>
                </mask>
                <g id="Clip-3692"></g>
            </g>
            <g id="Group-3728">
                <mask id="mask-106" sketch:name="Clip 3725" fill="white">
                    <use xlink:href="#path-105"></use>
                </mask>
                <g id="Clip-3725"></g>
            </g>
            <g id="Group-3759">
                <mask id="mask-108" sketch:name="Clip 3747" fill="white">
                    <use xlink:href="#path-107"></use>
                </mask>
                <g id="Clip-3747"></g>
            </g>
            <g id="Group-3782">
                <mask id="mask-110" sketch:name="Clip 3775" fill="white">
                    <use xlink:href="#path-109"></use>
                </mask>
                <g id="Clip-3775"></g>
            </g>
            <g id="Group-3800"></g>
            <g id="Group-3811"></g>
            <g id="Group-3824">
                <mask id="mask-112" sketch:name="Clip 3821" fill="white">
                    <use xlink:href="#path-111"></use>
                </mask>
                <g id="Clip-3821"></g>
            </g>
            <g id="Group-3841">
                <mask id="mask-114" sketch:name="Clip 3838" fill="white">
                    <use xlink:href="#path-113"></use>
                </mask>
                <g id="Clip-3838"></g>
            </g>
            <g id="Group-3854">
                <mask id="mask-116" sketch:name="Clip 3848" fill="white">
                    <use xlink:href="#path-115"></use>
                </mask>
                <g id="Clip-3848"></g>
            </g>
        </g>
    </g>
</svg>