<?xml version="1.0" encoding="UTF-8" standalone="no"?>
<svg width="60px" height="60px" viewBox="0 0 60 60" version="1.1" xmlns="http://www.w3.org/2000/svg" xmlns:xlink="http://www.w3.org/1999/xlink" xmlns:sketch="http://www.bohemiancoding.com/sketch/ns">
    <!-- Generator: Sketch 3.5.2 (25235) - http://www.bohemiancoding.com/sketch -->
    <title>PDF</title>
    <desc>Created with Sketch.</desc>
    <defs>
        <path id="path-1" d="M0,6.62 L6,6.62 L0,0.619 L0,6.62 Z"></path>
        <path id="path-3" d="M0,6.62 L6,6.62 L6,0.619 L0,6.62 Z"></path>
        <path d="M0,0.619 L0,21.62 L34,21.62 L34,9.619 L25,0.619 L0,0.619 Z M0,46.62 L33.999,46.62 L33.999,40.62 L0,40.62 L0,46.62 Z" id="path-5"></path>
        <path id="path-7" d="M0,19.62 L46,19.62 L46,0.62 L0,0.62 L0,19.62 Z"></path>
        <path id="path-9" d="M0,9.619 L9,9.619 L0,0.619 L0,9.619 Z"></path>
        <path d="M18.723,0.583 L18.723,12.62 L20.781,12.62 L20.781,7.451 L23.857,7.451 L23.857,5.701 L20.764,5.701 L20.764,2.419 L24.113,2.419 L24.113,0.583 L18.723,0.583 Z M9.05,0.583 L9.05,12.62 L12.06,12.62 C13.612,12.62 14.788,12.095 15.587,11.048 L15.587,11.048 C16.386,9.998 16.786,8.522 16.786,6.619 L16.786,6.619 C16.786,4.714 16.386,3.233 15.587,2.173 L15.587,2.173 C14.788,1.113 13.618,0.583 12.076,0.583 L12.076,0.583 L9.05,0.583 Z M11.108,2.369 L12.076,2.369 C12.462,2.369 12.819,2.456 13.147,2.633 L13.147,2.633 C13.477,2.807 13.759,3.072 13.998,3.423 L13.998,3.423 C14.235,3.774 14.42,4.216 14.55,4.749 L14.55,4.749 C14.681,5.281 14.745,5.904 14.745,6.619 L14.745,6.619 C14.745,7.322 14.681,7.935 14.55,8.463 L14.55,8.463 C14.42,8.99 14.235,9.429 13.998,9.78 L13.998,9.78 C13.759,10.131 13.477,10.395 13.147,10.571 L13.147,10.571 C12.819,10.746 12.462,10.834 12.076,10.834 L12.076,10.834 L11.108,10.834 L11.108,2.369 Z M0.635,0.583 L0.635,12.62 L2.641,12.62 L2.641,7.791 L4.07,7.791 C4.489,7.791 4.897,7.718 5.294,7.571 L5.294,7.571 C5.691,7.423 6.042,7.197 6.348,6.891 L6.348,6.891 C6.654,6.585 6.9,6.203 7.087,5.742 L7.087,5.742 C7.274,5.283 7.367,4.749 7.367,4.137 L7.367,4.137 C7.367,3.456 7.263,2.89 7.053,2.436 L7.053,2.436 C6.844,1.984 6.577,1.617 6.254,1.339 L6.254,1.339 C5.931,1.062 5.565,0.867 5.158,0.753 L5.158,0.753 C4.749,0.641 4.353,0.583 3.967,0.583 L3.967,0.583 L0.635,0.583 Z M2.641,2.3 L3.798,2.3 C4.273,2.3 4.665,2.447 4.971,2.742 L4.971,2.742 C5.277,3.038 5.43,3.507 5.43,4.154 L5.43,4.154 C5.43,4.8 5.277,5.289 4.971,5.624 L4.971,5.624 C4.665,5.958 4.273,6.125 3.798,6.125 L3.798,6.125 L2.641,6.125 L2.641,2.3 Z" id="path-11"></path>
        <path id="path-13" d="M0,0.62 L904.88,0.62 L904.88,1621 L0,1621 L0,0.62 Z"></path>
        <path id="path-15" d="M0,0.62 L904.88,0.62 L904.88,1621 L0,1621 L0,0.62 Z"></path>
        <path id="path-17" d="M0,0.62 L904.88,0.62 L904.88,1621 L0,1621 L0,0.62 Z"></path>
        <path id="path-19" d="M0,0.62 L904.88,0.62 L904.88,1621 L0,1621 L0,0.62 Z"></path>
        <path id="path-21" d="M0,0.62 L904.88,0.62 L904.88,1621 L0,1621 L0,0.62 Z"></path>
        <path id="path-23" d="M0,0.62 L904.88,0.62 L904.88,1621 L0,1621 L0,0.62 Z"></path>
    </defs>
    <g id="flat" stroke="none" stroke-width="1" fill="none" fill-rule="evenodd" sketch:type="MSPage">
        <g id="Formats_sliced" sketch:type="MSLayerGroup" transform="translate(-360.000000, -600.000000)"></g>
        <g id="Page-1" sketch:type="MSLayerGroup" transform="translate(-360.976782, -598.561049)">
            <g id="Group-1205" transform="translate(408.000000, 620.000000)">
                <mask id="mask-2" sketch:name="Clip 1204" fill="white">
                    <use xlink:href="#path-1"></use>
                </mask>
                <g id="Clip-1204"></g>
                <path d="M-5,-4.38 L11,-4.38 L11,11.62 L-5,11.62 L-5,-4.38 Z" id="Fill-1203" fill="#4A8F9E" sketch:type="MSShapeGroup" mask="url(#mask-2)"></path>
            </g>
            <path d="M409,625.6195 L411.586,625.6195 L409,623.0335 L409,625.6195 Z M414,627.6195 L408,627.6195 C407.448,627.6195 407,627.1715 407,626.6195 L407,620.6195 C407,620.2155 407.244,619.8505 407.617,619.6955 C407.991,619.5395 408.421,619.6255 408.707,619.9125 L414.707,625.9125 C414.993,626.1985 415.079,626.6285 414.924,627.0025 C414.769,627.3755 414.404,627.6195 414,627.6195 L414,627.6195 Z" id="Fill-1206" fill="#4A8F9E" sketch:type="MSShapeGroup"></path>
            <g id="Group-1210" transform="translate(368.000000, 620.000000)">
                <mask id="mask-4" sketch:name="Clip 1209" fill="white">
                    <use xlink:href="#path-3"></use>
                </mask>
                <g id="Clip-1209"></g>
                <path d="M-5,11.62 L11,11.62 L11,-4.38 L-5,-4.38 L-5,11.62 Z" id="Fill-1208" fill="#4A8F9E" sketch:type="MSShapeGroup" mask="url(#mask-4)"></path>
            </g>
            <path d="M370.4141,625.6195 L373.0001,625.6195 L373.0001,623.0335 L370.4141,625.6195 Z M374.0001,627.6195 L368.0001,627.6195 C367.5961,627.6195 367.2311,627.3755 367.0761,627.0025 C366.9211,626.6285 367.0071,626.1985 367.2931,625.9125 L373.2931,619.9125 C373.5791,619.6255 374.0071,619.5395 374.3831,619.6955 C374.7561,619.8505 375.0001,620.2155 375.0001,620.6195 L375.0001,626.6195 C375.0001,627.1715 374.5521,627.6195 374.0001,627.6195 L374.0001,627.6195 Z" id="Fill-1211" fill="#4A8F9E" sketch:type="MSShapeGroup"></path>
            <g id="Group-1215" transform="translate(374.000000, 605.000000)">
                <mask id="mask-6" sketch:name="Clip 1214" fill="white">
                    <use xlink:href="#path-5"></use>
                </mask>
                <g id="Clip-1214"></g>
                <path d="M-5,-4.38 L39,-4.38 L39,51.62 L-5,51.62 L-5,-4.38 Z" id="Fill-1213" fill="#C6DFED" sketch:type="MSShapeGroup" mask="url(#mask-6)"></path>
            </g>
            <path d="M408,627.6195 C407.448,627.6195 407,627.1715 407,626.6195 L407,615.0335 L398.586,606.6195 L375,606.6195 L375,626.6195 C375,627.1715 374.552,627.6195 374,627.6195 C373.448,627.6195 373,627.1715 373,626.6195 L373,605.6195 C373,605.0675 373.448,604.6195 374,604.6195 L399,604.6195 C399.265,604.6195 399.52,604.7245 399.707,604.9125 L408.707,613.9125 C408.895,614.0995 409,614.3545 409,614.6195 L409,626.6195 C409,627.1715 408.552,627.6195 408,627.6195 M408,652.6195 L374,652.6195 C373.448,652.6195 373,652.1715 373,651.6195 L373,645.6195 C373,645.0675 373.448,644.6195 374,644.6195 C374.552,644.6195 375,645.0675 375,645.6195 L375,650.6195 L407,650.6195 L407,645.6195 C407,645.0675 407.448,644.6195 408,644.6195 C408.552,644.6195 409,645.0675 409,645.6195 L409,651.6195 C409,652.1715 408.552,652.6195 408,652.6195" id="Fill-1216" fill="#C6DFED" sketch:type="MSShapeGroup"></path>
            <g id="Group-1220" transform="translate(368.000000, 626.000000)">
                <mask id="mask-8" sketch:name="Clip 1219" fill="white">
                    <use xlink:href="#path-7"></use>
                </mask>
                <g id="Clip-1219"></g>
                <path d="M-5,-4.38 L51,-4.38 L51,24.62 L-5,24.62 L-5,-4.38 Z" id="Fill-1218" fill="#FD5A5A" sketch:type="MSShapeGroup" mask="url(#mask-8)"></path>
            </g>
            <path d="M369,644.62 L413,644.62 L413,627.62 L369,627.62 L369,644.62 Z M414,646.62 L368,646.62 C367.448,646.62 367,646.172 367,645.62 L367,626.62 C367,626.067 367.448,625.62 368,625.62 L414,625.62 C414.552,625.62 415,626.067 415,626.62 L415,645.62 C415,646.172 414.552,646.62 414,646.62 L414,646.62 Z" id="Fill-1221" fill="#FD5A5A" sketch:type="MSShapeGroup"></path>
            <g id="Group-1225" transform="translate(399.000000, 605.000000)">
                <mask id="mask-10" sketch:name="Clip 1224" fill="white">
                    <use xlink:href="#path-9"></use>
                </mask>
                <g id="Clip-1224"></g>
                <path d="M-5,-4.38 L14,-4.38 L14,14.62 L-5,14.62 L-5,-4.38 Z" id="Fill-1223" fill="#A9C7D8" sketch:type="MSShapeGroup" mask="url(#mask-10)"></path>
            </g>
            <path d="M400,613.6195 L405.586,613.6195 L400,608.0335 L400,613.6195 Z M408,615.6195 L399,615.6195 C398.448,615.6195 398,615.1715 398,614.6195 L398,605.6195 C398,605.2155 398.244,604.8505 398.617,604.6955 C398.99,604.5395 399.42,604.6255 399.707,604.9125 L408.707,613.9125 C408.993,614.1985 409.079,614.6285 408.924,615.0025 C408.769,615.3755 408.404,615.6195 408,615.6195 L408,615.6195 Z" id="Fill-1226" fill="#A9C7D8" sketch:type="MSShapeGroup"></path>
            <g id="Group-1230" transform="translate(379.000000, 630.000000)">
                <mask id="mask-12" sketch:name="Clip 1229" fill="white">
                    <use xlink:href="#path-11"></use>
                </mask>
                <g id="Clip-1229"></g>
                <path d="M-4.365,-4.417 L29.112,-4.417 L29.112,17.619 L-4.365,17.619 L-4.365,-4.417 Z" id="Fill-1228" fill="#FFE9E1" sketch:type="MSShapeGroup" mask="url(#mask-12)"></path>
            </g>
            <g id="Group-1386"></g>
            <g id="Group-1411"></g>
            <g id="Group-1454"></g>
            <g id="Group-1541"></g>
            <g id="Group-1563"></g>
            <g id="Group-1730"></g>
            <g id="Group-1748">
                <mask id="mask-14" sketch:name="Clip 1747" fill="white">
                    <use xlink:href="#path-13"></use>
                </mask>
                <g id="Clip-1747"></g>
            </g>
            <g id="Group-1857"></g>
            <g id="Group-1866"></g>
            <g id="Group-1888"></g>
            <g id="Group-1934"></g>
            <g id="Group-1977"></g>
            <g id="Group-1995"></g>
            <g id="Group-2013"></g>
            <g id="Group-2031"></g>
            <g id="Group-2054">
                <mask id="mask-16" sketch:name="Clip 2053" fill="white">
                    <use xlink:href="#path-15"></use>
                </mask>
                <g id="Clip-2053"></g>
            </g>
            <g id="Group-2192"></g>
            <g id="Group-2214"></g>
            <g id="Group-2238"></g>
            <g id="Group-2265"></g>
            <g id="Group-2282"></g>
            <g id="Group-2478">
                <mask id="mask-18" sketch:name="Clip 2476" fill="white">
                    <use xlink:href="#path-17"></use>
                </mask>
                <g id="Clip-2476"></g>
            </g>
            <g id="Group-2493">
                <mask id="mask-20" sketch:name="Clip 2492" fill="white">
                    <use xlink:href="#path-19"></use>
                </mask>
                <g id="Clip-2492"></g>
            </g>
            <g id="Group-2541">
                <mask id="mask-22" sketch:name="Clip 2539" fill="white">
                    <use xlink:href="#path-21"></use>
                </mask>
                <g id="Clip-2539"></g>
            </g>
            <g id="Group-2557">
                <mask id="mask-24" sketch:name="Clip 2555" fill="white">
                    <use xlink:href="#path-23"></use>
                </mask>
                <g id="Clip-2555"></g>
            </g>
        </g>
    </g>
</svg>