<svg width="60" height="60" viewBox="0 0 60 60" xmlns="http://www.w3.org/2000/svg"><title>Parachute</title><g transform="translate(6 4)" stroke="#535353" stroke-width="2" stroke-linecap="round" stroke-linejoin="round" fill="none" fill-rule="evenodd"><path d="M48 24C48 10.745 37.255 0 24 0S0 10.745 0 24a6 6 0 1 1 12 0 6 6 0 1 1 12 0 6 6 0 1 1 12 0 6 6 0 1 1 12 0z"/><circle cx="24.5" cy="46.5" r="2.5"/><path d="M27 52l4-4m-9 4l-4-4M2 27l17.217 16.27M46.712 27L29.494 43.27M12.626 26.356l9.585 14.496m13.874-14.496L26.5 40.852M23.991 23v14.755"/></g></svg>